# xmcd
#
# Track frame offsets: 
#        150
#        22807
#        48562
#        72822
#        97297
#        121752
#        143732
#        171552
#        197347
#        219500
#        258687
#
# Disc length: 3701 seconds
#
# Revision: 17
# Processed by: cddbd v1.5.2PL0 Copyright (c) Steve Scherf et al.
# Submitted via: ExactAudioCopy v1.3
#
DISCID=a00e730b
DTITLE=中島みゆき - LOVE OR NOTHING
DYEAR=1994
DGENRE=JPop
TTITLE0=空と君のあいだに
TTITLE1=もう桟橋に灯りは点らない
TTITLE2=バラ色の未来
TTITLE3=ひまわり“SUNWARD”
TTITLE4=アンテナの街
TTITLE5=てんびん秤
TTITLE6=流星
TTITLE7=夢だったんだね
TTITLE8=風にならないか
TTITLE9=YOU NEVER NEED ME
TTITLE10=眠らないで
EXTD=YEAR: 1994
EXTT0=
EXTT1=
EXTT2=
EXTT3=
EXTT4=
EXTT5=
EXTT6=
EXTT7=
EXTT8=
EXTT9=
EXTT10=
PLAYORDER=
